<svg version="1.0" width="437.000000pt" height="557.000000pt" viewBox="0 0 437.000000 557.000000" preserveAspectRatio="xMidYMid meet" xmlns="http://www.w3.org/2000/svg">
    <defs>
    <linearGradient id="theGradient" x1="0%" y1="0%" x2="0%" y2="100%">
      <stop offset="0%" stop-color="#fff"/>
      <stop offset="0%" stop-color="#404040"/>
    </linearGradient>
  </defs>
  <g transform="translate(0.000000,557.000000) scale(0.100000,-0.100000)" fill="#000000" stroke="none">
    <path fill="url(#theGradient)" d="M 1990 5520 C 1700 5502 1449 5442 1233 5338 C 1188 5316 1146 5292 1140 5284 C 1121 5262 1132 5048 1155 4975 C 1165 4942 1175 4914 1176 4912 C 1177 4911 1204 4925 1236 4944 C 1340 5006 1499 5053 1750 5096 C 1955 5131 2250 5139 2455 5116 C 2743 5084 3017 5014 3122 4945 C 3142 4931 3161 4924 3163 4928 C 3182 4960 3204 5090 3204 5174 L 3205 5272 L 3172 5300 C 3098 5362 2818 5464 2655 5489 C 2456 5519 2190 5532 1990 5520 Z M 922 5065 C 846 4897 836 4845 835 4605 C 835 4421 838 4382 858 4290 C 914 4040 1111 3534 1267 3242 L 1323 3137 L 1344 3165 C 1355 3181 1383 3216 1407 3244 C 1431 3272 1474 3324 1504 3360 C 1604 3482 1931 3787 2004 3827 C 2026 3839 2040 3829 1870 3930 C 1545 4124 1293 4378 1121 4687 C 1053 4810 1018 4905 990 5045 C 978 5106 967 5156 966 5157 C 965 5158 945 5117 922 5065 Z M 3365 5053 C 3327 4869 3265 4725 3145 4545 C 2983 4302 2736 4076 2452 3910 C 2390 3874 2340 3843 2340 3840 C 2340 3837 2362 3819 2388 3800 C 2550 3679 2809 3420 2968 3217 C 2998 3180 3026 3152 3030 3155 C 3042 3162 3134 3345 3200 3490 C 3327 3771 3453 4120 3490 4295 C 3517 4422 3527 4664 3511 4780 C 3504 4826 3489 4892 3478 4929 C 3459 4991 3394 5140 3387 5140 C 3385 5140 3375 5101 3365 5053 Z M 1950 4963 C 1664 4936 1459 4890 1303 4820 L 1240 4791 L 1281 4718 C 1448 4421 1703 4190 2059 4013 C 2168 3959 2195 3949 2209 3958 C 2218 3965 2254 3985 2290 4004 C 2416 4070 2566 4163 2630 4214 C 2752 4313 2915 4498 3010 4645 C 3045 4700 3083 4755 3094 4767 C 3117 4794 3119 4791 3055 4823 C 2930 4885 2718 4940 2521 4959 C 2428 4969 2036 4972 1950 4963 Z M 638 4709 C 628 4704 554 4675 473 4646 C 391 4616 267 4567 195 4537 L 65 4482 L 62 4270 L 60 4059 L 82 4065 C 95 4069 159 4092 225 4117 C 442 4196 685 4280 701 4280 C 715 4280 715 4287 698 4351 C 688 4393 678 4482 674 4571 C 670 4653 664 4720 661 4720 C 658 4720 647 4715 638 4709 Z M 3675 4663 C 3681 4608 3668 4380 3654 4313 C 3648 4282 3649 4281 3691 4270 C 3812 4239 4143 4119 4229 4076 C 4300 4040 4295 4026 4293 4262 L 4291 4474 L 4253 4494 C 4167 4538 4027 4594 3871 4647 C 3780 4677 3697 4707 3687 4712 C 3670 4721 3669 4717 3675 4663 Z M 3600 4121 C 3600 4091 3525 3855 3476 3735 C 3388 3515 3261 3232 3190 3100 C 3110 2950 3076 2900 3055 2900 C 3048 2900 3021 2923 2996 2951 C 2960 2991 2752 3246 2704 3308 C 2696 3320 2688 3317 2664 3293 C 2648 3277 2607 3253 2573 3240 C 2513 3216 2512 3215 2518 3185 C 2522 3169 2525 2459 2525 1609 L 2525 64 L 2670 97 C 2947 160 3171 257 3435 428 C 3511 478 3575 533 3701 659 C 3840 798 3882 847 3958 961 C 4144 1241 4225 1454 4274 1790 C 4286 1877 4289 2066 4291 2885 L 4294 3874 L 4249 3897 C 4147 3947 3641 4140 3610 4140 C 3604 4140 3600 4132 3600 4121 Z M 565 4076 C 407 4020 121 3908 82 3887 L 59 3874 L 60 2914 C 60 2361 64 1919 70 1869 C 102 1589 168 1351 266 1160 C 399 902 647 621 905 438 C 1107 295 1429 155 1670 106 C 1711 97 1761 86 1780 80 C 1799 75 1817 70 1820 70 C 1823 70 1824 777 1822 1641 L 1819 3213 L 1769 3261 C 1742 3287 1720 3316 1720 3324 C 1720 3333 1716 3340 1712 3340 C 1700 3340 1602 3236 1488 3100 C 1429 3031 1363 2957 1340 2935 L 1299 2895 L 1276 2923 C 1247 2959 1112 3204 1027 3375 C 923 3583 750 4045 750 4113 C 750 4138 730 4134 565 4076 Z M 2169 3743 C 2161 3734 2137 3715 2115 3701 C 2035 3649 1924 3560 1901 3529 L 1878 3498 L 1906 3428 C 1950 3319 1938 3325 2081 3339 C 2324 3362 2449 3380 2514 3401 C 2551 3413 2579 3427 2578 3431 C 2574 3443 2276 3695 2225 3730 C 2186 3757 2181 3758 2169 3743 Z M 2259 3584 C 2297 3552 2300 3513 2266 3481 C 2206 3425 2090 3460 2090 3535 C 2090 3544 2103 3565 2119 3581 C 2158 3620 2215 3621 2259 3584 Z M 2310 3179 C 2280 3174 2190 3169 2112 3168 L 1968 3165 L 1972 1608 L 1975 50 L 2370 50 L 2370 1620 C 2370 2484 2369 3189 2368 3189 C 2366 3188 2340 3184 2310 3179 Z M 2245 3066 C 2277 3034 2285 2997 2270 2959 C 2253 2919 2223 2900 2177 2900 C 2124 2900 2080 2943 2080 2995 C 2080 3077 2188 3123 2245 3066 Z M 2245 2026 C 2312 1959 2267 1854 2173 1857 C 2123 1858 2080 1905 2080 1956 C 2080 2037 2188 2083 2245 2026 Z M 2232 909 C 2259 894 2283 835 2275 799 C 2266 759 2217 720 2175 720 C 2132 720 2085 759 2076 800 C 2069 837 2090 893 2117 909 C 2141 923 2206 923 2232 909 Z"></path>
  </g>
</svg>